<?xml version="1.0" encoding="UTF-8"?>
<!-- Generated by @neplex/vectorizer (Using visioncortex VTracer) -->
<svg version="1.1" xmlns="http://www.w3.org/2000/svg" width="1269" height="2048"><rect width="100%" height="100%" fill="white"/><g fill="black">
<path d="M0 0 C1.37156 0.00258 2.74312 0.00516 4.15625 0.00781 C6.21359 0.00395 6.21359 0.00395 8.3125 0 C11.65625 0.13281 11.65625 0.13281 12.65625 1.13281 C14.14125 1.13281 15.62625 1.13281 17.15625 1.13281 C18.64125 1.13281 20.12625 1.13281 21.65625 1.13281 C21.98625 1.46281 22.31625 1.79281 22.65625 2.13281 C25.1708 2.62447 27.69329 3.07567 30.21875 3.50781 C36.00828 4.56325 41.21642 5.84236 46.65625 8.13281 C49.6456 9.16704 52.65058 10.14658 55.65625 11.13281 C55.65625 11.79281 55.65625 12.45281 55.65625 13.13281 C56.3575 13.21531 57.05875 13.29781 57.78125 13.38281 C61.35065 14.31396 63.63852 16.0204 66.65625 18.13281 C67.74937 18.68969 68.8425 19.24656 69.96875 19.82031 C77.82876 24.74947 82.9653 31.26857 87.65625 39.13281 C88.64625 39.79281 89.63625 40.45281 90.65625 41.13281 C92.0263 43.44478 93.35802 45.77977 94.65625 48.13281 C95.64625 49.45281 96.63625 50.77281 97.65625 52.13281 C97.65625 53.12281 97.65625 54.11281 97.65625 55.13281 C98.31625 55.46281 98.97625 55.79281 99.65625 56.13281 C99.98625 56.79281 100.31625 57.45281 100.65625 58.13281 C106.3533 60.20239 112.04272 60.69699 118.03125 61.19531 C127.52923 62.00579 127.52923 62.00579 128.65625 63.13281 C129.64625 63.13281 130.63625 63.13281 131.65625 63.13281 C132.64625 63.13281 133.63625 63.13281 134.65625 63.13281 C134.98625 63.46281 135.31625 63.79281 135.65625 64.13281 C138.11003 64.55598 140.56971 64.94494 143.03125 65.32031 C155.38955 67.43204 167.14953 71.12803 178.65625 76.13281 C180.29594 76.59688 180.29594 76.59688 181.96875 77.07031 C185.89063 78.20035 189.56189 79.66036 193.32422 81.23047 C195.89282 82.27971 195.89282 82.27971 199.65625 83.13281 C199.65625 83.79281 199.65625 84.45281 199.65625 85.13281 C201.30625 85.13281 202.95625 85.13281 204.65625 85.13281 C206.6721 85.74991 208.67376 86.41574 210.65625 87.13281 C211.97625 87.46281 213.29625 87.79281 214.65625 88.13281 C214.65625 88.79281 214.65625 89.45281 214.65625 90.13281 C216.1 90.23594 217.54375 90.33906 219.03125 90.44531 C223.40472 90.88997 227.39093 91.81235 231.58594 93.16797 C235.78898 94.48877 240.03444 95.65021 244.28125 96.82031 C245.86164 97.2573 247.44203 97.6943 249.07031 98.14453 C250.25367 98.47066 251.43703 98.7968 252.65625 99.13281 C252.65625 99.79281 252.65625 100.45281 252.65625 101.13281 C253.41937 101.27719 254.1825 101.42156 254.96875 101.57031 C259.13639 102.44261 260.54151 103.01807 263.65625 106.13281 C270.44792 110.14051 276.9265 112.7274 284.65625 114.13281 C286.66463 114.77379 288.66453 115.44181 290.65625 116.13281 C292.27995 116.61635 293.90509 117.09509 295.53125 117.57031 C299.98909 118.89832 304.31682 120.45303 308.65625 122.13281 C310.03813 122.60719 311.42 123.08156 312.84375 123.57031 C316.65625 125.13281 316.65625 125.13281 319.09375 127.13281 C325.45205 132.09539 333.56099 132.70985 341.32422 133.70312 C344.45101 134.10635 347.55004 134.59547 350.65625 135.13281 C350.65625 135.79281 350.65625 136.45281 350.65625 137.13281 C351.99688 137.25656 353.3375 137.38031 354.71875 137.50781 C368.10616 139.20242 383.30952 145.30766 393.65625 154.13281 C394.97625 154.79281 396.29625 155.45281 397.65625 156.13281 C397.65625 156.79281 397.65625 157.45281 397.65625 158.13281 C398.97625 158.46281 400.29625 158.79281 401.65625 159.13281 C403.98828 160.98828 403.98828 160.98828 406.46875 163.32031 C407.78359 164.53654 407.78359 164.53654 409.125 165.77734 C410.37797 166.9433 410.37797 166.9433 411.65625 168.13281 C415.46663 171.55483 419.25207 174.51128 423.65625 177.13281 C425.08303 178.22388 426.49849 179.32982 427.90625 180.44531 C431.62199 183.37361 435.4221 186.06355 439.38281 188.64844 C441.78646 190.21783 444.15706 191.83179 446.53125 193.44531 C450.31941 196.16104 450.31941 196.16104 453.65625 197.13281 C453.65625 197.79281 453.65625 198.45281 453.65625 199.13281 C454.97625 199.46281 456.29625 199.79281 457.65625 200.13281 C459.33513 201.11216 460.99963 202.11625 462.65625 203.13281 C463.97625 203.77219 465.29625 204.41156 466.65625 205.07031 C470.09983 206.84591 472.69929 208.68276 475.65625 211.13281 C476.64625 211.46281 477.63625 211.79281 478.65625 212.13281 C478.98625 212.79281 479.31625 213.45281 479.65625 214.13281 C481.98405 215.47578 484.31814 216.80788 486.65625 218.13281 C488.32661 219.46151 489.9941 220.79386 491.65625 222.13281 C492.64625 222.46281 493.63625 222.79281 494.65625 223.13281 C494.98625 223.79281 495.31625 224.45281 495.65625 225.13281 C496.35879 225.54918 497.06133 225.96555 497.78516 226.39453 C510.03046 233.80836 534.17632 253.21308 537.65625 267.13281 C538.97625 267.79281 540.29625 268.45281 541.65625 269.13281 C541.98625 270.12281 542.31625 271.11281 542.65625 272.13281 C543.31625 272.46281 543.97625 272.79281 544.65625 273.13281 C545.99921 275.46062 547.33132 277.7947 548.65625 280.13281 C549.33687 280.97844 550.0175 281.82406 550.71875 282.69531 C552.65625 285.13281 552.65625 285.13281 554.03125 287.94531 C555.42952 290.68807 556.85959 292.83145 558.71875 295.25781 C561.65625 299.13281 561.65625 299.13281 563.65625 303.13281 C565.49484 304.88741 565.49484 304.88741 567.59375 306.50781 C571.10005 309.45486 572.6394 312.01141 574.65625 316.13281 C578.15466 319.69849 580.57735 321.82712 585.40625 323.19531 C588.98014 323.5023 588.98014 323.5023 591.65625 320.13281 C592.66129 317.41258 592.66129 317.41258 593.34375 314.44531 C593.59512 313.45145 593.84648 312.45758 594.10547 311.43359 C594.37811 310.29471 594.37811 310.29471 594.65625 309.13281 C595.31625 309.13281 595.97625 309.13281 596.65625 309.13281 C596.78 308.22531 596.90375 307.31781 597.03125 306.38281 C598.27076 299.93736 601.74066 296.98628 606.65625 293.13281 C607.5225 292.45348 608.38875 291.77414 609.28125 291.07422 C614.61834 287.03433 619.3331 284.42223 625.65625 282.13281 C627.36036 280.50445 629.0365 278.84511 630.65625 277.13281 C631.64625 277.13281 632.63625 277.13281 633.65625 277.13281 C634.31625 275.81281 634.97625 274.49281 635.65625 273.13281 C636.64625 272.80281 637.63625 272.47281 638.65625 272.13281 C639.68638 270.4846 640.6874 268.81778 641.65625 267.13281 C642.31625 266.80281 642.97625 266.47281 643.65625 266.13281 C644.93077 263.59256 646.15113 261.02502 647.34375 258.44531 C652.25107 248.49828 657.10638 243.74578 667.65625 240.13281 C671.96875 240.13281 671.96875 240.13281 675.65625 241.13281 C676.31625 241.83406 676.97625 242.53531 677.65625 243.25781 C679.67857 245.59637 679.67857 245.59637 683.59375 245.00781 C687.42554 244.31951 687.42554 244.31951 689.94141 243.14844 C693.33223 241.87993 696.5667 241.4601 700.15625 241.00781 C701.44531 240.84023 702.73438 240.67266 704.0625 240.5 C707.65625 240.13281 707.65625 240.13281 712.65625 240.13281 C712.65625 239.47281 712.65625 238.81281 712.65625 238.13281 C718.39127 237.31352 724.04957 236.98962 729.84375 236.88281 C731.17793 236.85703 732.51211 236.83125 733.88672 236.80469 C737.90404 237.15438 740.17206 238.18477 743.65625 240.13281 C746.09739 240.83946 748.53857 241.54596 750.98047 242.25 C755.40443 243.70959 759.76478 245.55422 763.65625 248.13281 C763.98625 249.12281 764.31625 250.11281 764.65625 251.13281 C765.97625 251.46281 767.29625 251.79281 768.65625 252.13281 C770.65625 253.62109 770.65625 253.62109 772.65625 255.44531 C773.69846 256.38697 773.69846 256.38697 774.76172 257.34766 C776.19709 258.70016 777.59291 260.09479 778.96875 261.50781 C780.66548 263.37492 780.66548 263.37492 783.65625 264.13281 C783.65625 264.79281 783.65625 265.45281 783.65625 266.13281 C784.95563 266.15344 786.255 266.17406 787.59375 266.19531 C793.40386 266.82244 797.83089 269.76485 801.65625 274.13281 C801.65625 275.45281 801.65625 276.77281 801.65625 278.13281 C802.31625 278.13281 802.97625 278.13281 803.65625 278.13281 C803.98625 280.11281 804.31625 282.09281 804.65625 284.13281 C806.54344 284.22562 806.54344 284.22562 808.46875 284.32031 C812.65625 285.13281 812.65625 285.13281 814.59375 287.07031 C815.60586 289.98757 815.84676 292.14446 816.03125 295.19531 C816.13133 300.10225 816.13133 300.10225 819.03125 302.44531 C819.8975 303.00219 820.76375 303.55906 821.65625 304.13281 C823.49912 306.75536 824.72684 309.30087 825.96875 312.25781 C827.82538 316.52119 829.99631 320.52066 832.25391 324.58203 C835.827 331.08128 836.02324 336.37547 836.13477 343.60352 C836.3067 349.21025 837.43248 353.05396 839.65625 358.13281 C840.67509 365.08252 840.76937 371.81423 840.46875 378.82031 C840.44071 380.16706 840.44071 380.16706 840.41211 381.54102 C840.165 387.45872 838.95313 391.24087 835.65625 396.13281 C832.42928 402.09029 831.84667 408.06729 831.08594 414.70703 C830.65625 418.13281 830.65625 418.13281 829.65625 422.13281 C828.99625 422.13281 828.33625 422.13281 827.65625 422.13281 C827.74906 423.64875 827.74906 423.64875 827.84375 425.19531 C827.5594 431.16657 825.86845 434.92061 821.65625 439.13281 C820.99625 439.13281 820.33625 439.13281 819.65625 439.13281 C819.57375 439.91656 819.49125 440.70031 819.40625 441.50781 C819.15875 442.37406 818.91125 443.24031 818.65625 444.13281 C817.33625 444.79281 816.01625 445.45281 814.65625 446.13281 C814.32625 447.12281 813.99625 448.11281 813.65625 449.13281 C812.99625 449.13281 812.33625 449.13281 811.65625 449.13281 C811.63562 450.45281 811.615 451.77281 811.59375 453.13281 C810.93017 459.09569 807.829 462.08425 803.65625 466.13281 C803.04781 466.75285 802.43937 467.37289 801.8125 468.01172 C799.27494 470.58824 796.68216 473.10754 794.09375 475.63281 C791.47031 478.24024 791.47031 478.24024 788.71875 481.82031 C785.49767 485.30434 783.97968 485.723 779.65625 487.13281 C777.47678 489.98533 777.47678 489.98533 775.65625 493.13281 C773.59375 495.50781 773.59375 495.50781 771.65625 497.13281 C770.66625 497.13281 769.67625 497.13281 768.65625 497.13281 C768.65625 497.79281 768.65625 498.45281 768.65625 499.13281 C763.87841 501.64538 759.09337 501.35959 753.84375 501.25781 C752.9601 501.24879 752.07645 501.23977 751.16602 501.23047 C748.99598 501.20701 746.82608 501.17114 744.65625 501.13281 C744.32625 502.45281 743.99625 503.77281 743.65625 505.13281 C738.82756 509.86493 734.02485 513.42933 727.23047 514.52344 C724.30354 515.21631 722.53567 516.33336 720.09375 518.07031 C714.04015 522.34036 708.8568 523.8064 701.65625 525.13281 C701.65625 524.47281 701.65625 523.81281 701.65625 523.13281 C698.35625 522.80281 695.05625 522.47281 691.65625 522.13281 C692.70401 526.14922 693.96243 529.88865 695.52344 533.74219 C697.61866 538.92415 699.33977 544.18337 701.03125 549.50781 C702.89425 555.30419 704.74841 560.67148 707.84375 565.94531 C711.98789 573.53737 712.59287 582.27444 713.79688 590.71875 C714.38055 594.71526 715.20154 598.347 716.65625 602.13281 C716.98625 603.22594 717.31625 604.31906 717.65625 605.44531 C718.35875 608.26836 718.35875 608.26836 720.65625 609.13281 C721.60409 612.92418 721.75975 615.76019 721.72217 619.63867 C721.71241 620.96105 721.70265 622.28343 721.6926 623.64587 C721.67802 625.075 721.66345 626.50413 721.64844 627.97656 C721.63091 631.00781 721.614 634.03906 721.59766 637.07031 C721.56678 641.84515 721.53138 646.61981 721.48486 651.39453 C721.4423 656.00523 721.41901 660.61572 721.39844 665.22656 C721.37982 666.6395 721.3612 668.05243 721.34201 669.50818 C721.31834 678.74081 722.19221 687.11009 725.71017 695.70886 C727.63457 700.63938 727.99252 706.08562 728.77734 711.29688 C729.35039 715.35827 729.35039 715.35827 732.65625 718.13281 C733.53516 721.89844 733.53516 721.89844 734.21875 726.38281 C735.0574 731.78426 736.10042 736.89505 737.65625 742.13281 C738.89948 747.78875 739.97063 753.31672 739.65625 759.13281 C740.31625 759.13281 740.97625 759.13281 741.65625 759.13281 C742.13859 762.56989 742.61719 766.00743 743.09375 769.44531 C743.22846 770.40244 743.36316 771.35957 743.50195 772.3457 C744.18959 777.32685 744.77706 782.28886 745.19141 787.30078 C745.10673 791.79534 745.10673 791.79534 746.65625 793.13281 C747.28549 797.93931 747.85463 802.74706 748.375 807.56641 C748.49617 808.58348 748.61734 809.60055 748.74219 810.64844 C748.8976 812.04498 748.8976 812.04498 749.05615 813.46973 C749.50532 816.20461 749.50532 816.20461 751.19287 818.43726 C753.27413 822.27095 753.01075 825.40377 752.98438 829.74609 C752.98218 831.00483 752.98218 831.00483 752.97993 832.28899 C752.97071 835.0081 752.93925 837.7264 752.90625 840.44531 C752.89368 842.30598 752.88188 844.16666 752.87085 846.02734 C752.57946 885.2096 752.57946 885.2096 750.65625 887.13281 C750.54316 888.88826 750.49941 890.64822 750.48267 892.40723 C750.46231 894.11356 750.46231 894.11356 750.44154 895.85435 C750.43119 897.1064 750.42083 898.35845 750.41016 899.64844 C750.37851 902.33179 750.3466 905.01514 750.31445 907.69849 C750.29906 909.11659 750.28368 910.53469 750.26782 911.99576 C750.02551 933.65853 749.6647 955.30339 748.65625 976.94531 C748.61437 977.86131 748.57248 978.77731 748.52933 979.72107 C748.1042 988.87907 747.58426 998.01015 746.65625 1007.13281 C745.99625 1007.13281 745.33625 1007.13281 744.65625 1007.13281 C744.74906 1009.05094 744.74906 1009.05094 744.84375 1011.00781 C744.85697 1020.24923 743.21056 1029.85967 740.60156 1038.71094 C739.58028 1042.40782 739.22991 1045.87691 738.90625 1049.69531 C737.76119 1059.56111 734.62879 1068.16942 728.65625 1076.13281 C728.16125 1076.95781 727.66625 1077.78281 727.15625 1078.63281 C725.65625 1081.13281 725.65625 1081.13281 722.65625 1085.13281 C721.99625 1085.13281 721.33625 1085.13281 720.65625 1085.13281 C719.99625 1086.45281 719.33625 1087.77281 718.65625 1089.13281 C715.91001 1092.252 713.04968 1095.24499 710.1875 1098.25781 C707.44922 1101.12122 707.44922 1101.12122 705.65625 1105.13281 C704.34594 1106.48877 703.01089 1107.82113 701.65625 1109.13281 C700.46543 1110.59261 699.2986 1112.07228 698.15625 1113.57031 C696.23151 1116.08569 694.299 1118.56527 692.28125 1121.00781 C690.47709 1123.1285 690.47709 1123.1285 689.65625 1126.13281 C686.582 1129.54864 683.57476 1131.80528 679.65625 1134.13281 C678.21256 1135.18689 676.77531 1136.24982 675.34375 1137.32031 C668.5659 1142.11663 661.1153 1145.53675 653.65625 1149.13281 C648.30933 1151.74 648.30933 1151.74 643.15625 1154.69531 C638.45743 1157.39713 634.08951 1159.13281 628.65625 1159.13281 C628.65625 1159.79281 628.65625 1160.45281 628.65625 1161.13281 C627.90602 1161.37516 627.15578 1161.6175 626.38281 1161.86719 C621.21592 1163.55912 616.11927 1165.30431 611.09375 1167.38281 C606.65625 1169.13281 606.65625 1169.13281 603.65625 1169.13281 C603.65625 1169.79281 603.65625 1170.45281 603.65625 1171.13281 C602.89441 1171.37516 602.13258 1171.6175 601.34766 1171.86719 C596.33231 1173.49514 591.43711 1175.14802 586.65625 1177.38281 C582.65625 1179.13281 582.65625 1179.13281 578.65625 1179.13281 C578.32625 1179.79281 577.99625 1180.45281 577.65625 1181.13281 C574.33938 1182.54736 571.0262 1183.85664 567.65625 1185.13281 C566.51801 1185.58527 565.37977 1186.03773 564.20703 1186.50391 C562.48033 1187.18646 562.48033 1187.18646 560.71875 1187.88281 C559.09646 1188.52477 559.09646 1188.52477 557.44141 1189.17969 C554.65625 1190.13281 554.65625 1190.13281 551.65625 1190.13281 C551.65625 1190.79281 551.65625 1191.45281 551.65625 1192.13281 C550.91762 1192.36355 550.17898 1192.5943 549.41797 1192.83203 C544.02933 1194.56434 538.69866 1196.40148 533.46875 1198.57031 C532.5677 1198.94027 531.66664 1199.31023 530.73828 1199.69141 C528.46614 1200.97387 528.46614 1200.97387 527.77344 1203.45312 C527.64133 1206.47404 528.13664 1208.66386 528.96875 1211.57031 C530.5265 1217.82277 531.27538 1223.98076 531.84375 1230.38281 C531.96907 1231.76618 531.96907 1231.76618 532.09692 1233.17749 C532.5707 1238.84909 532.73174 1244.44205 532.65625 1250.13281 C533.31625 1250.13281 533.97625 1250.13281 534.65625 1250.13281 C538.2379 1283.84099 538.2379 1283.84099 537.65625 1297.13281 C538.31625 1297.13281 538.97625 1297.13281 539.65625 1297.13281 C540.78068 1313.75825 541.5958 1330.53892 539.65625 1347.13281 C539.32625 1347.46281 538.99625 1347.79281 538.65625 1348.13281 C538.55751 1350.13081 538.52653 1352.13238 538.53125 1354.13281 C538.52738 1355.7725 538.52738 1355.7725 538.52344 1357.44531 C538.35077 1360.05112 538.35077 1360.05112 539.65625 1361.13281 C542.74131 1376.38228 544.66562 1391.1047 539.65625 1406.13281 C538.99625 1406.13281 538.33625 1406.13281 537.65625 1406.13281 C537.32625 1407.45281 536.99625 1408.77281 536.65625 1410.13281 C534.91406 1412.01953 534.91406 1412.01953 532.78125 1413.82031 C531.73324 1414.7233 531.73324 1414.7233 530.66406 1415.64453 C528.65625 1417.13281 528.65625 1417.13281 525.65625 1418.13281 C525.32625 1418.79281 524.99625 1419.45281 524.65625 1420.13281 C522.37109 1420.98437 522.37109 1420.98437 519.59375 1421.75781 C518.67465 1422.0182 517.75555 1422.27859 516.80859 1422.54688 C516.09832 1422.74023 515.38805 1422.93359 514.65625 1423.13281 C514.65625 1423.79281 514.65625 1424.45281 514.65625 1425.13281 C509.4695 1427.0427 504.28965 1428.92739 499.03125 1430.63281 C494.43443 1432.20887 490.0586 1434.09253 485.65625 1436.13281 C484.63145 1436.59945 483.60664 1437.06609 482.55078 1437.54688 C477.32251 1439.93729 472.14176 1442.37422 467.03125 1445.00781 C462.65625 1447.13281 462.65625 1447.13281 459.65625 1447.13281 C459.6009 1447.88901 459.54555 1448.64521 459.48853 1449.42432 C459.23478 1452.86903 458.97681 1456.31342 458.71875 1459.75781 C458.63174 1460.94762 458.54473 1462.13742 458.45508 1463.36328 C458.32456 1465.09385 458.32456 1465.09385 458.19141 1466.85938 C458.11285 1467.91721 458.0343 1468.97505 457.95337 1470.06494 C457.65737 1473.12121 457.19684 1476.11108 456.65625 1479.13281 C455.99625 1479.13281 455.33625 1479.13281 454.65625 1479.13281 C454.68719 1480.38965 454.71812 1481.64648 454.75 1482.94141 C454.75 1488.44912 453.99571 1493.76154 453.15625 1499.19531 C452.94162 1500.63681 452.94162 1500.63681 452.72266 1502.10742 C452.373 1504.45009 452.01545 1506.79159 451.65625 1509.13281 C450.99625 1509.13281 450.33625 1509.13281 449.65625 1509.13281 C449.67687 1510.30844 449.6975 1511.48406 449.71875 1512.69531 C449.65625 1517.13281 449.65625 1517.13281 449.18359 1520.11768 C448.45367 1525.67522 448.3268 1531.21336 448.15625 1536.8125 C448.07295 1539.29167 447.98962 1541.77083 447.90625 1544.25 C447.77985 1548.14774 447.65505 1552.04553 447.53125 1555.94336 C447.41022 1559.71238 447.28349 1563.48118 447.15625 1567.25 C447.1208 1568.42594 447.08535 1569.60187 447.04883 1570.81345 C446.99372 1572.43115 446.99372 1572.43115 446.9375 1574.08154 C446.89206 1575.51215 446.89206 1575.51215 446.8457 1576.97165 C446.65625 1579.13281 446.65625 1579.13281 445.65625 1580.13281 C445.55099 1582.641 445.51766 1585.15221 445.51099 1587.6626 C445.50461 1589.28163 445.49823 1590.90066 445.49165 1592.56876 C445.49012 1594.35313 445.48901 1596.1375 445.48828 1597.92188 C445.48507 1599.74214 445.48171 1601.5624 445.4782 1603.38266 C445.47219 1607.20775 445.47036 1611.03282 445.47095 1614.85791 C445.47105 1619.75043 445.45743 1624.6428 445.44018 1629.53529 C445.42903 1633.29976 445.42703 1637.0642 445.42756 1640.82869 C445.42638 1642.63153 445.42197 1644.43437 445.41422 1646.2372 C445.40438 1648.767 445.40858 1651.29685 445.41333 1653.82666 C445.41119 1655.9839 445.41119 1655.9839 445.40901 1658.18472 C445.6558 1662.12562 446.45303 1665.38591 447.65625 1669.13281 C447.97379 1671.01896 448.24807 1672.91304 448.47266 1674.8125 C448.59705 1675.82312 448.72145 1676.83375 448.84961 1677.875 C448.97143 1678.90883 449.09324 1679.94266 449.21875 1681.00781 C449.42088 1687.58795 449.42088 1687.58795 451.65625 1693.13281 C452.10005 1695.71162 452.51043 1698.2962 452.90625 1700.88281 C454.07615 1707.75815 455.77233 1713.88225 458.47266 1720.30078 C461.88146 1728.45717 461.88146 1728.45717 460.65625 1732.13281 C461.31625 1732.13281 461.97625 1732.13281 462.65625 1732.13281 C462.83027 1733.45668 463.0043 1734.78055 463.18359 1736.14453 C464.50353 1742.05133 467.84098 1744.99827 472.21875 1748.94531 C481.99071 1758.22552 493.29277 1769.67891 496.65625 1783.13281 C497.97625 1783.79281 499.29625 1784.45281 500.65625 1785.13281 C500.65625 1785.79281 500.65625 1786.45281 500.65625 1787.13281 C501.97625 1787.46281 503.29625 1787.79281 504.65625 1788.13281 C506.66007 1788.78791 508.66083 1789.45256 510.65625 1790.13281 C510.65625 1790.79281 510.65625 1791.45281 510.65625 1792.13281 C511.3575 1792.19469 512.05875 1792.25656 512.78125 1792.32031 C516.58423 1793.39507 518.70112 1795.55493 521.65625 1798.13281 C522.97625 1798.79281 524.29625 1799.45281 525.65625 1800.13281 C525.65625 1800.79281 525.65625 1801.45281 525.65625 1802.13281 C526.56375 1802.25656 527.47125 1802.38031 528.40625 1802.50781 C532.36397 1803.26891 534.93747 1804.07309 537.25391 1807.48828 C537.7373 1808.42285 538.2207 1809.35742 538.71875 1810.32031 C539.48445 1811.79951 539.48445 1811.79951 540.26562 1813.30859 C543.90475 1820.69929 545.80034 1826.45668 545.78125 1834.69531 C545.78383 1835.81035 545.78641 1836.92539 545.78906 1838.07422 C545.65625 1841.13281 545.65625 1841.13281 544.65625 1845.13281 C540.58794 1846.48892 536.66582 1846.23505 532.42578 1846.19531 C530.50252 1846.18684 528.57926 1846.17846 526.65601 1846.17017 C525.64537 1846.16397 524.63474 1846.15778 523.59348 1846.1514 C506.75697 1846.05126 489.96642 1846.14182 473.14185 1846.86523 C471.35267 1846.93774 471.35267 1846.93774 469.52734 1847.01172 C467.99485 1847.08242 467.99485 1847.08242 466.4314 1847.15454 C463.65625 1847.13281 463.65625 1847.13281 461.29027 1846.6433 C456.8279 1845.77847 452.2898 1845.91183 447.75781 1845.85156 C446.69066 1845.83315 445.62351 1845.81474 444.52402 1845.79578 C441.10982 1845.73715 437.69556 1845.68438 434.28125 1845.63281 C395.31493 1845.03505 395.31493 1845.03505 384.6875 1841.00781 C381.33047 1840.03877 378.63867 1840.00015 375.15625 1840.13281 C370.49079 1840.31054 366.99431 1839.92787 362.65625 1838.13281 C361.99625 1837.47281 361.33625 1836.81281 360.65625 1836.13281 C359.3775 1835.86469 358.09875 1835.59656 356.78125 1835.32031 C352.15185 1833.98761 350.98813 1833.25844 348.65625 1829.13281 C346.14608 1822.58454 346.99999 1818.37308 349.65625 1812.13281 C350.275 1810.63428 350.275 1810.63428 350.90625 1809.10547 C351.74979 1807.07443 352.60437 1805.04793 353.47266 1803.02734 C354.67059 1800.09774 355.68782 1797.14521 356.65625 1794.13281 C357.31625 1794.13281 357.97625 1794.13281 358.65625 1794.13281 C358.84961 1792.84246 359.04297 1791.55211 359.24219 1790.22266 C359.50497 1788.50517 359.76801 1786.78773 360.03125 1785.07031 C360.22074 1783.79897 360.22074 1783.79897 360.41406 1782.50195 C360.97601 1778.86333 361.58411 1775.36312 362.68579 1771.84595 C363.75787 1767.74399 363.96029 1764.11951 364.03516 1759.88281 C364.06932 1758.30371 364.10348 1756.72461 364.13867 1755.09766 C364.1651 1753.45926 364.19152 1751.82086 364.21875 1750.13281 C364.41292 1739.82963 364.69152 1729.57573 365.43579 1719.29639 C366.20049 1708.32306 365.66143 1697.39753 364.84375 1686.44531 C364.77374 1685.41737 364.70373 1684.38942 364.63159 1683.33032 C364.17575 1677.8216 363.30257 1674.04546 360.65625 1669.13281 C360.05219 1666.29509 359.53586 1663.43773 359.09375 1660.57031 C358.3456 1655.76439 357.49817 1651.61218 355.65625 1647.13281 C354.8325 1643.34357 354.13919 1639.54011 353.4375 1635.72656 C352.76213 1632.61985 351.83032 1630.06341 350.65625 1627.13281 C350.11393 1624.66256 349.61704 1622.18207 349.15625 1619.69531 C348.48702 1616.0909 347.82668 1612.64077 346.66016 1609.16406 C345.44777 1605.50333 344.77553 1601.86473 344.09375 1598.07031 C343.84496 1596.69746 343.59617 1595.32461 343.33984 1593.91016 C343.11426 1592.66363 342.88867 1591.41711 342.65625 1590.13281 C342.07825 1587.10679 341.41024 1584.15166 340.66016 1581.16016 C339.29808 1575.0693 338.99236 1568.9101 338.59375 1562.69531 C338.43996 1560.36303 338.2826 1558.03098 338.12109 1555.69922 C338.05527 1554.67772 337.98945 1553.65622 337.92163 1552.60376 C337.80169 1550.13273 337.80169 1550.13273 336.65625 1548.13281 C336.94051 1545.12777 337.27133 1542.12663 337.65625 1539.13281 C336.99625 1539.13281 336.33625 1539.13281 335.65625 1539.13281 C335.65625 1538.14281 335.65625 1537.15281 335.65625 1536.13281 C328.88684 1539.36746 322.74906 1542.72524 316.65625 1547.13281 C315.66625 1547.13281 314.67625 1547.13281 313.65625 1547.13281 C313.65625 1547.79281 313.65625 1548.45281 313.65625 1549.13281 C307.03125 1552.13281 307.03125 1552.13281 303.65625 1552.13281 C303.65625 1552.79281 303.65625 1553.45281 303.65625 1554.13281 C302.56313 1554.66906 301.47 1555.20531 300.34375 1555.75781 C297.02853 1557.41252 293.77416 1559.1533 290.53125 1560.94531 C285.05404 1563.95435 279.48679 1566.7587 273.88672 1569.53125 C271.34072 1570.79347 268.80835 1572.08316 266.28125 1573.38281 C256.44196 1578.13281 256.44196 1578.13281 251.65625 1578.13281 C251.65625 1578.79281 251.65625 1579.45281 251.65625 1580.13281 C250.89441 1580.37516 250.13258 1580.6175 249.34766 1580.86719 C244.33231 1582.49514 239.43711 1584.14802 234.65625 1586.38281 C230.65625 1588.13281 230.65625 1588.13281 226.65625 1588.13281 C226.65625 1588.79281 226.65625 1589.45281 226.65625 1590.13281 C225.79902 1590.38676 224.9418 1590.6407 224.05859 1590.90234 C218.08425 1592.70071 212.38749 1594.66051 206.65625 1597.13281 C203.99652 1597.82665 201.33072 1598.49819 198.65625 1599.13281 C197.99625 1599.46281 197.33625 1599.79281 196.65625 1600.13281 C195.66625 1599.80281 194.67625 1599.47281 193.65625 1599.13281 C193.65625 1599.79281 193.65625 1600.45281 193.65625 1601.13281 C191.90808 1601.63918 190.15763 1602.13766 188.40625 1602.63281 C187.43172 1602.91125 186.45719 1603.18969 185.45312 1603.47656 C182.65625 1604.13281 182.65625 1604.13281 178.65625 1604.13281 C178.65625 1604.79281 178.65625 1605.45281 178.65625 1606.13281 C177.82223 1606.36355 176.9882 1606.5943 176.12891 1606.83203 C168.97867 1608.90421 163.0582 1611.36696 156.65625 1615.13281 C152.2654 1617.3318 148.66723 1619.13281 143.65625 1619.13281 C143.65625 1619.79281 143.65625 1620.45281 143.65625 1621.13281 C141.98563 1621.96812 141.98563 1621.96812 140.28125 1622.82031 C139.54777 1623.1877 138.8143 1623.55508 138.05859 1623.93359 C136.46953 1624.72684 134.8784 1625.51597 133.28516 1626.30078 C130.73379 1627.56217 128.19285 1628.842 125.65625 1630.13281 C124.28727 1630.82891 124.28727 1630.82891 122.89062 1631.53906 C117.39642 1634.42429 112.51148 1637.56243 107.72656 1641.51953 C105.47114 1643.27706 103.11133 1644.6695 100.65625 1646.13281 C98.93554 1647.36572 97.22774 1648.61678 95.53125 1649.88281 C90.83316 1653.35227 86.00671 1656.44352 80.96875 1659.39453 C76.26896 1662.92731 74.77143 1668.1948 72.81641 1673.53516 C69.75578 1680.38808 64.62669 1685.98687 59.90234 1691.74219 C57.41141 1694.81082 55.43357 1697.57818 53.65625 1701.13281 C52.66625 1701.46281 51.67625 1701.79281 50.65625 1702.13281 C49.99625 1703.12281 49.33625 1704.11281 48.65625 1705.13281 C47.99625 1705.13281 47.33625 1705.13281 46.65625 1705.13281 C46.32625 1706.45281 45.99625 1707.77281 45.65625 1709.13281 C43.98437 1710.87891 43.98437 1710.87891 41.90625 1712.57031 C39.57749 1714.5089 37.4331 1716.36802 35.34375 1718.57031 C32.8259 1720.97105 30.32479 1722.78578 27.46875 1724.75781 C21.39501 1729.0903 16.1213 1734.13745 11.65625 1740.13281 C11.65625 1741.12281 11.65625 1742.11281 11.65625 1743.13281 C10.99625 1743.13281 10.33625 1743.13281 9.65625 1743.13281 C9.32625 1744.45281 8.99625 1745.77281 8.65625 1747.13281 C7.99625 1748.45281 7.33625 1749.77281 6.65625 1751.13281 C6.65625 1751.79281 6.65625 1752.45281 6.65625 1753.13281 C5.99625 1753.13281 5.33625 1753.13281 4.65625 1753.13281 C4.53895 1753.82504 4.42164 1754.51727 4.30078 1755.23047 C3.57923 1758.47964 2.50806 1761.45227 1.34375 1764.57031 C-2.95935 1776.52476 -5.83841 1788.08416 -7.4375 1800.6875 C-8.64737 1806.62214 -10.17268 1811.68543 -15.34375 1815.13281 C-17.83203 1815.22266 -17.83203 1815.22266 -20.65625 1815.07031 C-25.41821 1814.98259 -28.23863 1815.55518 -32.34375 1818.13281 C-37.5159 1821.2361 -41.32064 1821.63474 -47.34375 1821.13281 C-50.84375 1819.82031 -50.84375 1819.82031 -53.34375 1818.13281 C-53.67375 1817.14281 -54.00375 1816.15281 -54.34375 1815.13281 C-55.4575 1814.82344 -56.57125 1814.51406 -57.71875 1814.19531 C-61.34375 1813.13281 -61.34375 1813.13281 -64.34375 1809.13281 C-64.77688 1807.89531 -65.21 1806.65781 -65.65625 1805.38281 C-67.1715 1800.95494 -67.1715 1800.95494 -70.46875 1797.25781 C-74.14593 1792.59274 -74.34375 1789.04475 -74.34375 1783.13281 C-73.59382 1779.43671 -72.61007 1775.96981 -71.46875 1772.38281 C-71.4275 1771.64031 -71.38625 1770.89781 -71.34375 1770.13281 C-73.23961 1767.98692 -73.23961 1767.98692 -75.34375 1766.13281 C-75.34375 1765.14281 -75.34375 1764.15281 -75.34375 1763.13281 C-76.00375 1763.13281 -76.66375 1763.13281 -77.34375 1763.13281 C-79.93489 1752.76824 -78.31814 1743.55797 -73.34375 1734.13281 C-72.01566 1732.79426 -70.68226 1731.46095 -69.34375 1730.13281 C-68.31222 1728.14889 -67.31476 1726.14704 -66.34375 1724.13281 C-64.92489 1721.9195 -63.46457 1719.73235 -61.96875 1717.57031 C-61.21852 1716.4759 -60.46828 1715.38148 -59.69531 1714.25391 C-57.43775 1711.25758 -55.05293 1708.71967 -52.34375 1706.13281 C-51.68375 1705.43156 -51.02375 1704.73031 -50.34375 1704.00781 C-48.34375 1702.13281 -48.34375 1702.13281 -46.00781 1700.78906 C-43.18149 1699.03193 -41.06099 1697.11615 -38.71875 1694.75781 C-37.96336 1694.00758 -37.20797 1693.25734 -36.42969 1692.48438 C-34.252 1690.17988 -34.252 1690.17988 -32.69531 1687.34375 C-32.2493 1686.61414 -31.80328 1685.88453 -31.34375 1685.13281 C-30.68375 1685.13281 -30.02375 1685.13281 -29.34375 1685.13281 C-29.01375 1683.81281 -28.68375 1682.49281 -28.34375 1681.13281 C-28.01375 1680.47281 -27.68375 1679.81281 -27.34375 1679.13281 C-26.25297 1663.73501 -28.85262 1648.2502 -32.39453 1633.33203 C-33.5108 1628.39381 -34.27922 1623.45697 -34.94922 1618.44141 C-35.10744 1616.17649 -35.10744 1616.17649 -36.34375 1615.13281 C-36.41705 1612.10395 -36.43609 1609.09834 -36.40625 1606.07031 C-36.40174 1605.21631 -36.39723 1604.3623 -36.39258 1603.48242 C-36.38075 1601.36586 -36.36282 1599.24933 -36.34375 1597.13281 C-35.68375 1597.13281 -35.02375 1597.13281 -34.34375 1597.13281 C-34.01375 1595.81281 -33.68375 1594.49281 -33.34375 1593.13281 C-31.23437 1591.5 -31.23437 1591.5 -28.59375 1590.00781 C-27.30211 1589.26145 -27.30211 1589.26145 -25.98438 1588.5 C-20.70859 1585.76846 -16.26276 1584.82336 -10.34375 1584.13281 C-10.01375 1583.80281 -9.68375 1583.47281 -9.34375 1583.13281 C-5.42766 1582.47067 -1.50745 1581.88863 2.42383 1581.32617 C7.04189 1580.63686 11.25003 1579.64037 15.65625 1578.13281 C17.89933 1577.77403 20.15051 1577.46325 22.40625 1577.19531 C33.5719 1575.64518 42.00519 1572.14774 52.01953 1566.875 C55.04123 1565.42744 57.36814 1564.55257 60.65625 1564.13281 C60.98625 1563.14281 61.31625 1562.15281 61.65625 1561.13281 C63.98432 1560.12061 66.31927 1559.12426 68.65625 1558.13281 C76.97902 1553.25351 85.81586 1547.97321 92.65625 1541.13281 C94.98958 1539.79948 97.32292 1538.46615 99.65625 1537.13281 C100.64625 1536.14281 101.63625 1535.15281 102.65625 1534.13281 C103.64625 1534.13281 104.63625 1534.13281 105.65625 1534.13281 C105.98625 1533.14281 106.31625 1532.15281 106.65625 1531.13281 C108.85996 1529.8553 111.06812 1528.58157 113.33203 1527.41406 C116.03218 1525.99591 116.03218 1525.99591 119.65625 1523.13281 C120.64625 1523.13281 121.63625 1523.13281 122.65625 1523.13281 C122.98625 1522.14281 123.31625 1521.15281 123.65625 1520.13281 C125.62504 1519.07269 127.63543 1518.09004 129.65625 1517.13281 C136.62178 1513.21246 143.16433 1508.78414 149.65625 1504.13281 C150.86797 1503.27559 152.07969 1502.41836 153.32812 1501.53516 C159.76885 1497.17022 159.76885 1497.17022 165.65625 1492.13281 C166.64625 1492.13281 167.63625 1492.13281 168.65625 1492.13281 C169.31625 1490.81281 169.97625 1489.49281 170.65625 1488.13281 C171.79062 1487.16344 172.925 1486.19406 174.09375 1485.19531 C177.22998 1482.49925 178.62498 1480.58598 180.65625 1477.13281 C181.64625 1477.13281 182.63625 1477.13281 183.65625 1477.13281 C183.98625 1475.81281 184.31625 1474.49281 184.65625 1473.13281 C186.07189 1471.4538 187.49373 1469.77906 188.96484 1468.14844 C190.82079 1465.93673 192.35062 1463.62622 193.90625 1461.19531 C195.2675 1459.18437 195.2675 1459.18437 196.65625 1457.13281 C197.31625 1457.13281 197.97625 1457.13281 198.65625 1457.13281 C198.98625 1455.81281 199.31625 1454.49281 199.65625 1453.13281 C201.10938 1451.01953 201.10938 1451.01953 202.90625 1448.82031 C205.22081 1445.94969 207.36406 1443.11042 209.46875 1440.07031 C210.19063 1439.10094 210.9125 1438.13156 211.65625 1437.13281 C212.31625 1437.13281 212.97625 1437.13281 213.65625 1437.13281 C213.98625 1435.81281 214.31625 1434.49281 214.65625 1433.13281 C217.11673 1430.37672 219.59065 1427.78098 222.21875 1425.19531 C222.91033 1424.49213 223.60191 1423.78895 224.31445 1423.06445 C228.77963 1418.62424 233.20372 1415.28121 238.65625 1412.13281 C239.50187 1411.59656 240.3475 1411.06031 241.21875 1410.50781 C247.05481 1407.21567 253.30394 1405.19302 259.65625 1403.13281 C260.99688 1402.67906 262.3375 1402.22531 263.71875 1401.75781 C282.76907 1395.43002 282.76907 1395.43002 289.96875 1393.94531 C293.71947 1393.35259 293.71947 1393.35259 296.65625 1391.13281 C299.01617 1390.43389 301.39435 1389.79566 303.78125 1389.19531 C309.50811 1387.70996 315.09875 1386.16174 320.65625 1384.13281 C321.74937 1383.82344 322.8425 1383.51406 323.96875 1383.19531 C327.82597 1380.23512 328.39905 1376.82115 329.73047 1372.24609 C330.73924 1368.85371 332.12636 1365.71343 333.60156 1362.5 C337.68247 1353.34063 340.85105 1343.7944 344.12451 1334.3252 C345.67545 1329.85842 347.28697 1325.43991 349.09375 1321.07031 C350.84067 1317.3741 350.84067 1317.3741 350.65625 1314.13281 C349.64562 1313.76156 348.635 1313.39031 347.59375 1313.00781 C343.19342 1310.91242 340.09826 1308.57482 336.65625 1305.13281 C336.65625 1303.81281 336.65625 1302.49281 336.65625 1301.13281 C337.31625 1301.13281 337.97625 1301.13281 338.65625 1301.13281 C339.31625 1299.81281 339.97625 1298.49281 340.65625 1297.13281 C341.64625 1296.14281 342.63625 1295.15281 343.65625 1294.13281 C343.98625 1292.81281 344.31625 1291.49281 344.65625 1290.13281 C340.03703 1290.13281 336.94402 1291.49938 332.65625 1293.13281 C331.66625 1293.13281 330.67625 1293.13281 329.65625 1293.13281 C329.65625 1293.79281 329.65625 1294.45281 329.65625 1295.13281 C328.5425 1295.66906 327.42875 1296.20531 326.28125 1296.75781 C321.23795 1299.275 316.469 1302.20604 311.65625 1305.13281 C304.91941 1309.13281 304.91941 1309.13281 302.65625 1309.13281 C302.65625 1309.79281 302.65625 1310.45281 302.65625 1311.13281 C301.94598 1311.39836 301.2357 1311.66391 300.50391 1311.9375 C299.5848 1312.2907 298.6657 1312.64391 297.71875 1313.00781 C296.80223 1313.35586 295.8857 1313.70391 294.94141 1314.0625 C292.50684 1314.91472 292.50684 1314.91472 291.65625 1317.13281 C286.25915 1318.81941 280.15988 1318.77204 274.71875 1317.38281 C272.65625 1316.13281 272.65625 1316.13281 270.65625 1312.13281 C270.03125 1307.75781 270.03125 1307.75781 270.65625 1303.13281 C275.29167 1298.74136 279.73897 1296.49973 285.65625 1294.13281 C290.40813 1291.58088 294.8865 1288.71421 299.34375 1285.6875 C300.82797 1284.68966 302.32714 1283.71351 303.84375 1282.76562 C310.43659 1278.59801 316.00038 1273.4821 321.65625 1268.13281 C322.64625 1268.46281 323.63625 1268.79281 324.65625 1269.13281 C324.32625 1267.81281 323.99625 1266.49281 323.65625 1265.13281 C318.4652 1265.67924 313.59934 1266.41786 308.65625 1268.13281 C308.32625 1268.79281 307.99625 1269.45281 307.65625 1270.13281 C301.42548 1273.13281 301.42548 1273.13281 297.65625 1273.13281 C297.65625 1273.79281 297.65625 1274.45281 297.65625 1275.13281 C288.60515 1280.41262 279.18204 1284.79224 269.65625 1289.13281 C268.42648 1289.69355 268.42648 1289.69355 267.17188 1290.26562 C265.0083 1291.24 262.83233 1292.18669 260.65625 1293.13281 C259.81063 1293.51824 258.965 1293.90367 258.09375 1294.30078 C249.60455 1298.00217 249.60455 1298.00217 244.65625 1296.13281 C238.15257 1292.40119 238.15257 1292.40119 236.53125 1288.25781 C236.75548 1282.65211 238.73831 1279.05075 242.65625 1275.13281 C243.64625 1275.13281 244.63625 1275.13281 245.65625 1275.13281 C246.31625 1273.81281 246.97625 1272.49281 247.65625 1271.13281 C248.97625 1270.80281 250.29625 1270.47281 251.65625 1270.13281 C251.98625 1269.14281 252.31625 1268.15281 252.65625 1267.13281 C253.64625 1266.47281 254.63625 1265.81281 255.65625 1265.13281 C255.65625 1264.14281 255.65625 1263.15281 255.65625 1262.13281 C254.66625 1262.13281 253.67625 1262.13281 252.65625 1262.13281 C252.65625 1262.79281 252.65625 1263.45281 252.65625 1264.13281 C247.52594 1266.23755 243.17656 1266.58654 237.65625 1266.13281 C232.80493 1264.02014 229.71457 1262.09699 227.65625 1257.13281 C227.65625 1252.13281 227.65625 1252.13281 229.52734 1249.70312 C234.35792 1245.10047 239.21264 1240.72425 244.55859 1236.72656 C246.57396 1235.19534 248.49355 1233.54049 250.40625 1231.88281 C253.65625 1229.13281 253.65625 1229.13281 256.03906 1227.72266 C259.78951 1225.4444 263.00321 1222.60156 266.35156 1219.77734 C268.65625 1218.13281 268.65625 1218.13281 271.65625 1218.13281 C271.98625 1217.14281 272.31625 1216.15281 272.65625 1215.13281 C276.75539 1212.68557 280.85931 1210.51705 285.15625 1208.44531 C287.77576 1207.38049 287.77576 1207.38049 288.65625 1205.13281 C289.97625 1204.47281 291.29625 1203.81281 292.65625 1203.13281 C292.32625 1198.51281 291.99625 1193.89281 291.65625 1189.13281 C290.99625 1189.13281 290.33625 1189.13281 289.65625 1189.13281 C289.41391 1188.30137 289.17156 1187.46992 288.92188 1186.61328 C288.58672 1185.5266 288.25156 1184.43992 287.90625 1183.32031 C287.58141 1182.24137 287.25656 1181.16242 286.92188 1180.05078 C285.08782 1175.82227 282.11737 1174.37984 278.15625 1172.25781 C274.70775 1170.16408 272.81762 1168.50455 270.65625 1165.13281 C270.65625 1164.14281 270.65625 1163.15281 270.65625 1162.13281 C269.99625 1162.13281 269.33625 1162.13281 268.65625 1162.13281 C268.14062 1161.12219 267.625 1160.11156 267.09375 1159.07031 C263.09851 1152.61647 257.67915 1148.15075 251.98828 1143.23438 C247.01507 1138.75266 242.16366 1134.08346 237.65625 1129.13281 C237.65625 1128.47281 237.65625 1127.81281 237.65625 1127.13281 C236.99625 1127.13281 236.33625 1127.13281 235.65625 1127.13281 C233.12911 1123.86602 230.96814 1121.06848 229.65625 1117.13281 C228.66625 1116.47281 227.67625 1115.81281 226.65625 1115.13281 C225.32292 1112.79948 223.98958 1110.46615 222.65625 1108.13281 C221.51137 1106.61612 220.34335 1105.11669 219.15625 1103.63281 C216.24235 1099.97799 213.90944 1096.23683 211.65625 1092.13281 C210.66625 1090.81281 209.67625 1089.49281 208.65625 1088.13281 C208.65625 1087.14281 208.65625 1086.15281 208.65625 1085.13281 C207.99625 1085.13281 207.33625 1085.13281 206.65625 1085.13281 C204.6146 1081.55993 202.57694 1077.98861 200.59375 1074.38281 C198.74008 1070.97136 198.74008 1070.97136 195.65625 1068.13281 C195.07875 1067.08094 194.50125 1066.02906 193.90625 1064.94531 C191.67889 1061.17117 189.22576 1058.30792 186.29688 1055.08984 C184.65625 1053.13281 184.65625 1053.13281 182.90625 1049.82031 C179.93211 1044.94603 176.04822 1041.40399 171.92188 1037.48828 C169.65625 1035.13281 169.65625 1035.13281 169.65625 1033.13281 C168.33625 1032.47281 167.01625 1031.81281 165.65625 1031.13281 C164.14256 1029.88178 162.66499 1028.58625 161.21875 1027.25781 C158.72339 1024.98481 156.26376 1022.82843 153.59375 1020.75781 C152.95438 1020.22156 152.315 1019.68531 151.65625 1019.13281 C151.65625 1018.47281 151.65625 1017.81281 151.65625 1017.13281 C150.33625 1016.80281 149.01625 1016.47281 147.65625 1016.13281 C146.26352 1014.51545 144.93687 1012.84031 143.65625 1011.13281 C142.81063 1010.30781 141.965 1009.48281 141.09375 1008.63281 C138.74359 1006.22239 137.36141 1004.01054 135.65625 1001.13281 C134.58077 999.66867 133.49708 998.21055 132.40625 996.75781 C123.51089 984.13881 115.00068 965.86647 115.65625 950.13281 C114.99625 950.13281 114.33625 950.13281 113.65625 950.13281 C113.34097 946.4872 113.029 942.84135 112.71875 939.19531 C112.63174 938.19307 112.54473 937.19082 112.45508 936.1582 C112.17232 932.81749 111.90959 929.47588 111.65625 926.13281 C111.5636 924.9161 111.47095 923.69938 111.37549 922.4458 C110.56138 910.4197 110.43639 898.40862 110.41602 886.35986 C110.40631 882.90242 110.37517 879.44558 110.34375 875.98828 C110.26669 859.75665 110.91553 843.78636 115.65625 828.13281 C116.14876 825.99 116.62821 823.84414 117.09375 821.69531 C118.24026 816.64602 119.71529 811.94301 121.65625 807.13281 C122.3336 805.13641 123.00464 803.13777 123.65625 801.13281 C124.31625 801.13281 124.97625 801.13281 125.65625 801.13281 C125.32625 800.14281 124.99625 799.15281 124.65625 798.13281 C129.16836 786.36209 135.84082 775.30798 142.30859 764.52344 C143.77043 762.10761 143.77043 762.10761 144.65625 759.13281 C145.31625 758.80281 145.97625 758.47281 146.65625 758.13281 C147.05973 757.43801 147.4632 756.7432 147.87891 756.02734 C150.63499 751.53887 154.28417 747.7968 157.83008 743.92383 C165.69741 735.09685 167.493 727.03146 168.90625 715.63281 C169.07898 714.33344 169.25172 713.03406 169.42969 711.69531 C169.85137 708.50926 170.25982 705.32209 170.65625 702.13281 C171.31625 702.13281 171.97625 702.13281 172.65625 702.13281 C172.75937 701.10156 172.8625 700.07031 172.96875 699.00781 C173.66442 695.08675 174.71614 692.5819 176.65625 689.13281 C177.33688 687.87469 178.0175 686.61656 178.71875 685.32031 C180.65625 682.13281 180.65625 682.13281 182.65625 681.13281 C183.0984 680.38645 183.54055 679.64008 183.99609 678.87109 C185.78564 675.91939 187.77348 673.74946 190.21875 671.32031 C191.00379 670.53012 191.78883 669.73992 192.59766 668.92578 C194.65625 667.13281 194.65625 667.13281 196.65625 667.13281 C197.31625 665.81281 197.97625 664.49281 198.65625 663.13281 C200.62946 661.76014 202.63168 660.42854 204.65625 659.13281 C215.91552 649.52932 222.08589 630.45884 227.65625 617.13281 C228.03523 616.22918 228.41422 615.32555 228.80469 614.39453 C232.17201 606.16479 235.49875 597.76281 237.65625 589.13281 C238.31625 589.13281 238.97625 589.13281 239.65625 589.13281 C239.75937 588.14281 239.8625 587.15281 239.96875 586.13281 C240.71173 581.81 242.05782 578.21769 243.65625 574.13281 C244.28782 572.19744 244.91233 570.25976 245.53125 568.32031 C247.21381 563.19467 249.26967 558.36744 251.60547 553.50781 C252.82931 550.92431 252.82931 550.92431 253.65625 547.13281 C254.31625 547.13281 254.97625 547.13281 255.65625 547.13281 C255.78 546.41094 255.90375 545.68906 256.03125 544.94531 C256.64674 542.17559 257.54069 539.73578 258.65625 537.13281 C259.31625 537.13281 259.97625 537.13281 260.65625 537.13281 C260.98625 535.81281 261.31625 534.49281 261.65625 533.13281 C262.58223 531.59941 263.56617 530.10007 264.59375 528.63281 C266.55906 525.81281 268.10452 523.23627 269.65625 520.13281 C270.31625 520.13281 270.97625 520.13281 271.65625 520.13281 C271.92953 519.39676 272.20281 518.6607 272.48438 517.90234 C276.80319 507.69555 285.03068 498.81183 292.01953 490.33203 C293.82643 488.14346 293.82643 488.14346 294.65625 485.13281 C295.31625 484.80281 295.97625 484.47281 296.65625 484.13281 C297.6693 482.47405 298.66714 480.80596 299.65625 479.13281 C300.94398 477.48811 302.25751 475.86335 303.59375 474.25781 C305.90097 471.4188 307.83534 468.8194 309.65625 465.63281 C312.02248 461.49192 314.8941 458.01746 317.94922 454.36719 C319.82802 452.15859 319.82802 452.15859 320.65625 449.13281 C321.64625 448.47281 322.63625 447.81281 323.65625 447.13281 C325.00458 444.80811 326.33513 442.47308 327.65625 440.13281 C328.65661 438.74284 329.6781 437.36787 330.71875 436.00781 C333.52794 432.46235 333.52794 432.46235 335.0625 429.72656 C336.84519 426.82533 338.88979 424.35202 341.09375 421.75781 C343.58779 418.75535 345.71601 416.02822 347.65625 412.63281 C352.38179 404.36312 359.23972 397.35698 365.71094 390.42188 C367.75211 388.15443 367.75211 388.15443 369.28906 385.34375 C369.96582 384.24934 369.96582 384.24934 370.65625 383.13281 C371.31625 383.13281 371.97625 383.13281 372.65625 383.13281 C372.65625 382.47281 372.65625 381.81281 372.65625 381.13281 C374.31384 380.11784 375.98273 379.12129 377.65625 378.13281 C379.525 376.54867 381.35707 374.92054 383.15625 373.25781 C384.07406 372.41477 384.99188 371.57172 385.9375 370.70312 C392.59258 364.93085 392.59258 364.93085 394.82422 356.80469 C394.83066 355.51047 394.83711 354.21625 394.84375 352.88281 C394.85793 351.59891 394.87211 350.315 394.88672 348.99219 C394.65152 345.05359 393.88132 341.87274 392.65625 338.13281 C392.33785 337.13379 392.01945 336.13477 391.69141 335.10547 C391.37043 334.14512 391.04945 333.18477 390.71875 332.19531 C390.20055 330.6407 390.20055 330.6407 389.67188 329.05469 C388.83947 326.65992 387.91639 324.29686 386.96875 321.94531 C385.46013 317.56312 385.01629 313.74132 384.65625 309.13281 C383.99625 309.13281 383.33625 309.13281 382.65625 309.13281 C382.32625 308.14281 381.99625 307.15281 381.65625 306.13281 C376.53832 302.63107 371.23575 299.82293 365.65625 297.13281 C365.65625 296.47281 365.65625 295.81281 365.65625 295.13281 C364.33625 294.80281 363.01625 294.47281 361.65625 294.13281 C353.78724 290.2527 345.87308 286.14041 338.65625 281.13281 C338.65625 280.47281 338.65625 279.81281 338.65625 279.13281 C337.60438 279.04 337.60438 279.04 336.53125 278.94531 C332.72602 277.86992 330.64206 275.69208 327.65625 273.13281 C326.7075 272.65844 325.75875 272.18406 324.78125 271.69531 C321.42287 270.01612 318.62293 267.89228 315.65625 265.60547 C312.80768 263.50799 309.7387 261.86331 306.65625 260.13281 C305.19098 259.16406 303.73305 258.18414 302.28125 257.19531 C297.87195 254.21829 293.33207 251.67111 288.65625 249.13281 C286.32071 247.80335 283.98653 246.47148 281.65625 245.13281 C281.65625 244.47281 281.65625 243.81281 281.65625 243.13281 C280.93438 243.05031 280.2125 242.96781 279.46875 242.88281 C276.05973 241.97374 274.32942 240.40501 271.65625 238.13281 C270.72812 237.59656 269.8 237.06031 268.84375 236.50781 C268.12188 236.05406 267.4 235.60031 266.65625 235.13281 C266.65625 234.47281 266.65625 233.81281 266.65625 233.13281 C265.33625 232.80281 264.01625 232.47281 262.65625 232.13281 C261.33625 231.14281 260.01625 230.15281 258.65625 229.13281 C258.65625 228.47281 258.65625 227.81281 258.65625 227.13281 C257.33625 226.47281 256.01625 225.81281 254.65625 225.13281 C249.02354 220.58513 244.04596 215.5713 239.37891 210.05469 C235.36934 205.58143 231.05027 201.82982 225.65625 199.13281 C225.65625 198.47281 225.65625 197.81281 225.65625 197.13281 C224.33625 196.80281 223.01625 196.47281 221.65625 196.13281 C220.05588 195.37618 218.47329 194.58126 216.90625 193.75781 C210.80269 190.65659 205.6099 188.13281 198.65625 188.13281 C196.31985 187.47698 193.98675 186.80933 191.65625 186.13281 C187.86974 185.56543 184.08094 185.13134 180.27734 184.69531 C176.65625 184.13281 176.65625 184.13281 173.86792 183.16016 C170.43394 182.0617 167.22611 181.56327 163.64844 181.13281 C162.3323 180.96781 161.01617 180.80281 159.66016 180.63281 C156.89985 180.29855 154.13943 179.96522 151.37891 179.63281 C150.06535 179.46781 148.7518 179.30281 147.39844 179.13281 C146.20074 178.98844 145.00304 178.84406 143.76904 178.69531 C140.65625 178.13281 140.65625 178.13281 136.65625 176.13281 C134.25166 175.53983 131.83304 175.00216 129.40625 174.50781 C128.14297 174.24742 126.87969 173.98703 125.57812 173.71875 C124.1318 173.42871 124.1318 173.42871 122.65625 173.13281 C122.65625 172.47281 122.65625 171.81281 122.65625 171.13281 C120.64531 170.94719 120.64531 170.94719 118.59375 170.75781 C114.39007 170.2257 110.67809 169.41638 106.65625 168.13281 C106.65625 167.47281 106.65625 166.81281 106.65625 166.13281 C103.27483 166.37878 103.27483 166.37878 99.65625 168.13281 C98.1467 170.3497 97.12138 172.56659 96.08984 175.03906 C92.034 183.79173 86.90357 190.46725 79.96875 197.13281 C79.21014 197.88176 78.45152 198.6307 77.66992 199.40234 C69.77927 207.13281 69.77927 207.13281 65.65625 207.13281 C65.32625 208.12281 64.99625 209.11281 64.65625 210.13281 C62.25781 211.92188 62.25781 211.92188 59.28125 213.75781 C57.81559 214.67434 57.81559 214.67434 56.32031 215.60938 C53.65625 217.13281 53.65625 217.13281 50.65625 218.13281 C50.32625 218.79281 49.99625 219.45281 49.65625 220.13281 C46.99897 221.48476 44.33041 222.81457 41.65625 224.13281 C40.35688 224.95781 39.0575 225.78281 37.71875 226.63281 C30.14634 231.29276 22.00535 234.19607 13.65625 237.13281 C12.17125 237.68969 10.68625 238.24656 9.15625 238.82031 C-0.63354 241.67567 -10.91278 241.28899 -21.03125 241.25781 C-22.29775 241.26168 -23.56426 241.26555 -24.86914 241.26953 C-31.11397 241.263 -37.15825 241.11316 -43.34375 240.13281 C-43.34375 239.47281 -43.34375 238.81281 -43.34375 238.13281 C-44.68437 238.00906 -46.025 237.88531 -47.40625 237.75781 C-51.60993 237.2257 -55.32191 236.41638 -59.34375 235.13281 C-59.34375 234.47281 -59.34375 233.81281 -59.34375 233.13281 C-61.10719 232.94719 -61.10719 232.94719 -62.90625 232.75781 C-66.91211 232.19361 -70.52593 231.45736 -74.34375 230.13281 C-74.67375 229.47281 -75.00375 228.81281 -75.34375 228.13281 C-76.80813 227.65844 -78.2725 227.18406 -79.78125 226.69531 C-84.34375 225.13281 -84.34375 225.13281 -86.34375 222.13281 C-87.06563 221.69969 -87.7875 221.26656 -88.53125 220.82031 C-92.18187 218.62994 -95.21787 216.01353 -98.34375 213.13281 C-98.34375 212.47281 -98.34375 211.81281 -98.34375 211.13281 C-99.00375 211.13281 -99.66375 211.13281 -100.34375 211.13281 C-111.34375 199.318 -111.34375 199.318 -111.34375 195.13281 C-116.99699 195.91338 -116.99699 195.91338 -121.03125 199.50781 C-121.46437 200.37406 -121.8975 201.24031 -122.34375 202.13281 C-127.84199 207.46443 -134.60079 210.81221 -142.15625 211.69531 C-146.66741 211.08934 -148.34445 210.49566 -151.34375 207.13281 C-153.81415 203.31492 -153.7574 199.27629 -153.20703 194.82031 C-151.48814 189.46918 -147.29835 185.95325 -143.34375 182.13281 C-142.67988 181.42383 -142.01602 180.71484 -141.33203 179.98438 C-138.31261 176.77501 -136.70581 175.22333 -132.34375 174.13281 C-131.68375 172.81281 -131.02375 171.49281 -130.34375 170.13281 C-129.35375 169.80281 -128.36375 169.47281 -127.34375 169.13281 C-127.45845 167.38211 -127.58594 165.63224 -127.71875 163.88281 C-127.78836 162.90828 -127.85797 161.93375 -127.92969 160.92969 C-128.24217 157.81697 -128.24217 157.81697 -130.34375 154.13281 C-131.41754 154.14441 -132.49133 154.15602 -133.59766 154.16797 C-135.01949 154.17699 -136.44133 154.18602 -137.90625 154.19531 C-139.31004 154.20691 -140.71383 154.21852 -142.16016 154.23047 C-147.43227 154.1074 -152.23398 153.41025 -157.34375 152.13281 C-157.34375 151.47281 -157.34375 150.81281 -157.34375 150.13281 C-158.80813 149.94719 -160.2725 149.76156 -161.78125 149.57031 C-169.88281 147.92021 -175.17516 143.16612 -179.84375 136.50781 C-183.42626 130.99472 -183.75015 125.63526 -183.34375 119.13281 C-180.89671 112.70934 -174.22627 109.07407 -168.34375 106.13281 C-168.34375 103.49281 -168.34375 100.85281 -168.34375 98.13281 C-169.00375 98.13281 -169.66375 98.13281 -170.34375 98.13281 C-170.90609 92.88428 -170.60837 90.55879 -167.78125 86.00781 C-165.49409 83.19242 -163.52636 81.52982 -160.53125 79.32031 C-156.51763 75.30669 -156.8677 73.36205 -156.68359 67.94922 C-156.09228 63.04877 -153.73383 59.62795 -150.34375 56.13281 C-143.36483 51.13281 -143.36483 51.13281 -139.34375 51.13281 C-139.15039 50.22918 -138.95703 49.32555 -138.75781 48.39453 C-138.49742 47.21504 -138.23703 46.03555 -137.96875 44.82031 C-137.71352 43.64855 -137.45828 42.4768 -137.19531 41.26953 C-136.34375 38.13281 -136.34375 38.13281 -134.34375 35.13281 C-129.1864 32.34785 -125.17103 31.66287 -119.34375 32.13281 C-117.67554 32.7956 -116.00907 33.4628 -114.34375 34.13281 C-112.10197 34.68795 -109.85115 35.20757 -107.59375 35.69531 C-101.45248 37.02409 -101.45248 37.02409 -100.34375 38.13281 C-98.66191 38.36568 -96.97251 38.54545 -95.28125 38.69531 C-93.65188 38.83969 -92.0225 38.98406 -90.34375 39.13281 C-89.68375 37.81281 -89.02375 36.49281 -88.34375 35.13281 C-86.12778 33.86189 -83.90642 32.59777 -81.64062 31.41797 C-79.11275 30.09583 -79.11275 30.09583 -76.34375 27.63281 C-72.5798 24.49619 -68.66277 22.44881 -64.34375 20.13281 C-63.35375 19.47281 -62.36375 18.81281 -61.34375 18.13281 C-60.35375 18.13281 -59.36375 18.13281 -58.34375 18.13281 C-58.34375 17.47281 -58.34375 16.81281 -58.34375 16.13281 C-51.71875 13.13281 -51.71875 13.13281 -48.34375 13.13281 C-48.34375 12.47281 -48.34375 11.81281 -48.34375 11.13281 C-47.46332 10.86727 -46.58289 10.60172 -45.67578 10.32812 C-43.93361 9.79832 -43.93361 9.79832 -42.15625 9.25781 C-41.0077 8.90977 -39.85914 8.56172 -38.67578 8.20312 C-35.8333 7.29007 -33.1103 6.24692 -30.34375 5.13281 C-22.93203 3.15635 -15.4646 2.39811 -7.84375 1.59766 C-4.06488 1.09577 -3.75908 0.14931 0 0 Z " fill="#000000" transform="translate(263.34375,86.8671875)"/>
</g></svg>
